# xmcd
#
# Track frame offsets: 
#        150
#        22598
#        39180
#        52588
#        89974
#        110541
#        132931
#        150519
#        161554
#        173442
#        188290
#        215598
#        227575
#        249661
#        269042
#        285487
#        300352
#        326863
#        346831
#
# Disc length: 4795 seconds
#
# Revision: 0
# Processed by: cddbd v1.5.2PL0 Copyright (c) Steve Scherf et al.
# Submitted via: ExactAudioCopy v1.1
#
DISCID=f212b913
DTITLE=Various Artist - Akella Presents - vol.67 - Russia-Blues  CD2
DYEAR=2016
DGENRE=Blues
TTITLE0=J.A.M - Early In The Morning
TTITLE1=Mishouris Blues Band - I Got Money
TTITLE2=Crossroads - Cross Road Blues
TTITLE3=Blues Cousins - Suicider's blues
TTITLE4=5 Pence - Sweet Home Chicago
TTITLE5=A.Belov, A.Belov, A.Belov - Wonderful Tonight
TTITLE6=Blues Doctors - Ain't No Blind
TTITLE7=Blues League - Parchman Farm
TTITLE8=Ragtime - I Go Crazy
TTITLE9=Arutjunov - Immigrant Song
TTITLE10=Alexander Dolgov and The Rain Group - Nine Below Zero
TTITLE11=Off Beat - Cotton Jerry
TTITLE12=The Dry Law - Lou-Easy-Ann
TTITLE13=Sergey Kashin - You Call My Name
TTITLE14=Nickolay Haritonov - Largo
TTITLE15=Blues Cousins - Come Together
TTITLE16=The Black Bread and Dr. Agranovsky - Train Station Blues
TTITLE17=Mojo Blues - Freedom Is The Law
TTITLE18=Alexander Soloviev - Sunny Blues
EXTD=
EXTT0=
EXTT1=
EXTT2=
EXTT3=
EXTT4=
EXTT5=
EXTT6=
EXTT7=
EXTT8=
EXTT9=
EXTT10=
EXTT11=
EXTT12=
EXTT13=
EXTT14=
EXTT15=
EXTT16=
EXTT17=
EXTT18=
PLAYORDER=
